<?xml version="1.0" encoding="UTF-8" standalone="no"?><svg xmlns="http://www.w3.org/2000/svg" xmlns:xlink="http://www.w3.org/1999/xlink" width="19px" height="13px" viewBox="0 0 19 13" version="1.1"><title>code [#1115]</title><g id="Page-1" stroke="none" stroke-width="1" fill="none" fill-rule="evenodd"><g id="Dribbble-Light-Preview" transform="translate(-180.000000, -3283.000000)" fill="#2C8EBB"><g id="icons" transform="translate(56.000000, 160.000000)"><path d="M129.204 3126.419a.997.997 0 0 0 0-1.401l-.013-.013a.975.975 0 0 0-1.388 0l-3.515 3.548a.998.998 0 0 0 0 1.402l3.515 3.548a.975.975 0 0 0 1.388 0l.013-.013a.997.997 0 0 0 0-1.401l-2.114-2.134a.998.998 0 0 1 0-1.402l2.114-2.134zm13.508 2.134l-3.515-3.548a.975.975 0 0 0-1.388 0l-.013.013a.997.997 0 0 0 0 1.401l2.115 2.134a.998.998 0 0 1 0 1.402l-2.115 2.134a.997.997 0 0 0 0 1.401l.013.013a.975.975 0 0 0 1.388 0l3.515-3.548a.998.998 0 0 0 0-1.402zm-5.903-4.145l-5.062 10.83c-.164.341-.452.762-.823.762h-.02c-.721 0-1.192-.98-.873-1.641l5.033-10.728c.164-.34.772-.606.772-.606V3123c.982 0 1.292.747.973 1.408z" id="code-[#1115]"/></g></g></g><metadata><rdf:RDF xmlns:rdf="http://www.w3.org/1999/02/22-rdf-syntax-ns#" xmlns:rdfs="http://www.w3.org/2000/01/rdf-schema#" xmlns:dc="http://purl.org/dc/elements/1.1/"><rdf:Description about="https://iconscout.com/legal#licenses" dc:title="code" dc:description="code" dc:publisher="Iconscout" dc:date="2017-09-15" dc:format="image/svg+xml" dc:language="en"><dc:creator><rdf:Bag><rdf:li>Alexandru Stoica</rdf:li></rdf:Bag></dc:creator></rdf:Description></rdf:RDF></metadata></svg>