<?xml version="1.0" encoding="UTF-8" standalone="no"?>
<svg xmlns:dc="http://purl.org/dc/elements/1.1/" xmlns:cc="http://creativecommons.org/ns#" xmlns:rdf="http://www.w3.org/1999/02/22-rdf-syntax-ns#" xmlns:svg="http://www.w3.org/2000/svg" xmlns="http://www.w3.org/2000/svg" xmlns:sodipodi="http://sodipodi.sourceforge.net/DTD/sodipodi-0.dtd" xmlns:inkscape="http://www.inkscape.org/namespaces/inkscape" width="56" height="56" viewBox="0 0 56 56.000002" id="svg7272" version="1.1" inkscape:version="0.91 r13725" sodipodi:docname="fencing-cross-swords-combat-olympics-games-sports.svg">
  <defs id="defs7274">
    <clipPath clipPathUnits="userSpaceOnUse" id="clipPath84986">
      <rect rx="7.5590544" ry="7.5590544" y="647.14252" x="-3431.0923" height="56.000004" width="56.000004" id="rect84988" style="opacity:1;fill:#f18d71;fill-opacity:1;stroke:none;stroke-width:0.5;stroke-linecap:round;stroke-linejoin:round;stroke-miterlimit:4;stroke-dasharray:none;stroke-dashoffset:0;stroke-opacity:1"/>
    </clipPath>
  </defs>
  <sodipodi:namedview id="base" pagecolor="#ffffff" bordercolor="#666666" borderopacity="1.0" inkscape:pageopacity="0.0" inkscape:pageshadow="2" inkscape:zoom="2.8" inkscape:cx="-43.314019" inkscape:cy="47.933196" inkscape:document-units="px" inkscape:current-layer="layer1" showgrid="false" units="px" inkscape:window-width="1366" inkscape:window-height="716" inkscape:window-x="-8" inkscape:window-y="-8" inkscape:window-maximized="1"/>
  
  <g inkscape:label="Layer 1" inkscape:groupmode="layer" id="layer1" transform="translate(0,-996.3622)">
    <g transform="translate(3431.0923,-671.14244)" id="g84990">
      <rect rx="7.5590544" ry="7.5590544" y="1667.5046" x="-3431.0923" height="56.000004" width="56.000004" id="rect25647" style="opacity:1;fill:#f39c83;fill-opacity:1;stroke:none;stroke-width:0.5;stroke-linecap:round;stroke-linejoin:round;stroke-miterlimit:4;stroke-dasharray:none;stroke-dashoffset:0;stroke-opacity:1"/>
      <g clip-path="url(#clipPath84986)" style="fill:#f18d71;fill-opacity:1" transform="translate(0,1020.3621)" id="g80824">
        <g style="color:#000000;font-style:normal;font-variant:normal;font-weight:normal;font-stretch:normal;font-size:medium;line-height:normal;font-family:sans-serif;text-indent:0;text-align:start;text-decoration:none;text-decoration-line:none;text-decoration-style:solid;text-decoration-color:#000000;letter-spacing:normal;word-spacing:normal;text-transform:none;direction:ltr;block-progression:tb;writing-mode:lr-tb;baseline-shift:baseline;text-anchor:start;white-space:normal;clip-rule:nonzero;display:inline;overflow:visible;visibility:visible;opacity:1;isolation:auto;mix-blend-mode:normal;color-interpolation:sRGB;color-interpolation-filters:linearRGB;solid-color:#000000;solid-opacity:1;fill:#A6D3FF;fill-opacity:1;fill-rule:evenodd;stroke:none;stroke-width:0.25;stroke-linecap:round;stroke-linejoin:round;stroke-miterlimit:4;stroke-dasharray:none;stroke-dashoffset:0;stroke-opacity:1;color-rendering:auto;image-rendering:auto;shape-rendering:auto;text-rendering:auto;enable-background:accumulate" id="g80826">
          <path inkscape:connector-curvature="0" style="fill:#f18d71;fill-opacity:1" d="m -3415.8047,661.7832 0,0.002 35.3553,35.35534 0,-0.002 z" id="path80828"/>
          <path inkscape:connector-curvature="0" style="fill:#f18d71;fill-opacity:1" d="m -3415.8027,661.78516 c -0.018,-8e-4 -0.035,-6e-4 -0.053,0 l 35.3553,35.35534 c 0.018,-6e-4 0.035,-8e-4 0.053,0 z" id="path80830"/>
          <path inkscape:connector-curvature="0" style="fill:#f18d71;fill-opacity:1" d="m -3415.8555,661.78516 c 0,10e-5 0,0 -0.012,0 l 35.3553,35.35534 c 0.01,0 0.012,10e-5 0.012,0 z" id="path80832"/>
          <path inkscape:connector-curvature="0" style="fill:#f18d71;fill-opacity:1" d="m -3415.9766,661.86914 c -0.1883,0.0612 -0.3725,0.15127 -0.4355,0.32227 l 35.3553,35.35534 c 0.063,-0.171 0.2472,-0.26107 0.4355,-0.32227 z" id="path80834"/>
          <path inkscape:connector-curvature="0" style="fill:#f18d71;fill-opacity:1" d="m -3416.4121,662.19141 c -0.078,0.2127 -0.041,0.47292 0.1443,0.65807 l 35.3554,35.35534 c -0.1852,-0.18515 -0.2225,-0.44538 -0.1444,-0.65807 z" id="path80836"/>
          <path inkscape:connector-curvature="0" style="fill:#f18d71;fill-opacity:1" d="m -3416.2678,662.84948 c 0,0.002 0,0.004 0.01,0.006 l 35.3553,35.35534 c 0,-0.002 0,-0.004 -0.01,-0.006 z" id="path80838"/>
          <path inkscape:connector-curvature="0" style="fill:#f18d71;fill-opacity:1" d="m -3416.2617,662.85547 12.2851,12.28711 35.3553,35.35534 -12.2851,-12.28711 z" id="path80840"/>
          <path inkscape:connector-curvature="0" style="fill:#f18d71;fill-opacity:1" d="m -3403.9766,675.14258 -6.041,6.04101 35.3553,35.35534 6.041,-6.04101 z" id="path80842"/>
          <path inkscape:connector-curvature="0" style="fill:#f18d71;fill-opacity:1" d="m -3410.0332,681.20117 c 0.1689,0.1236 0.3313,0.25515 0.4785,0.40235 l 35.3553,35.35534 c -0.1472,-0.1472 -0.3096,-0.27875 -0.4785,-0.40235 z" id="path80844"/>
          <path inkscape:connector-curvature="0" style="fill:#f18d71;fill-opacity:1" d="m -3409.5547,681.60352 c 0,0 0,0 0,0 l 35.3553,35.35534 c 0,0 0,0 0,0 z" id="path80846"/>
          <path inkscape:connector-curvature="0" style="fill:#f18d71;fill-opacity:1" d="m -3409.5547,681.60352 c 0,0 0,0 0,0 l 35.3553,35.35534 c 0,0 0,0 0,0 z" id="path80848"/>
          <path inkscape:connector-curvature="0" style="fill:#f18d71;fill-opacity:1" d="m -3409.5547,681.60352 c 0.1472,0.1472 0.2787,0.30941 0.4024,0.47851 l 35.3553,35.35534 c -0.1237,-0.1691 -0.2552,-0.33131 -0.4024,-0.47851 z" id="path80850"/>
          <path inkscape:connector-curvature="0" style="fill:#f18d71;fill-opacity:1" d="m -3409.1367,682.07031 6.0429,-6.04492 35.3553,35.35534 -6.0429,6.04492 z" id="path80852"/>
          <path inkscape:connector-curvature="0" style="fill:#f18d71;fill-opacity:1" d="m -3403.0938,676.02539 6.045,6.04492 35.3553,35.35534 -6.045,-6.04492 z" id="path80854"/>
          <path inkscape:connector-curvature="0" style="fill:#f18d71;fill-opacity:1" d="m -3397.0312,682.08203 c 0.1237,-0.1691 0.2551,-0.33131 0.4023,-0.47851 l 35.3553,35.35534 c -0.1472,0.1472 -0.2786,0.30941 -0.4023,0.47851 z" id="path80856"/>
          <path inkscape:connector-curvature="0" style="fill:#f18d71;fill-opacity:1" d="m -3396.6289,681.60352 c 0.1472,-0.1472 0.3096,-0.27875 0.4785,-0.40235 l 35.3553,35.35534 c -0.1689,0.1236 -0.3313,0.25515 -0.4785,0.40235 z" id="path80858"/>
          <path inkscape:connector-curvature="0" style="fill:#f18d71;fill-opacity:1" d="m -3396.168,681.18359 -6.041,-6.04101 35.3553,35.35534 6.041,6.04101 z" id="path80860"/>
          <path inkscape:connector-curvature="0" style="fill:#f18d71;fill-opacity:1" d="m -3402.209,675.14258 12.2852,-12.28711 35.3553,35.35534 -12.2852,12.28711 z" id="path80862"/>
          <path inkscape:connector-curvature="0" style="fill:#f18d71;fill-opacity:1" d="m -3389.9238,662.85547 c 0.1904,-0.1855 0.2294,-0.44906 0.1504,-0.66406 l 35.3553,35.35534 c 0.079,0.215 0.04,0.47856 -0.1504,0.66406 z" id="path80864"/>
          <path inkscape:connector-curvature="0" style="fill:#f18d71;fill-opacity:1" d="m -3389.7734,662.19141 c -0.019,-0.0524 -0.05,-0.0972 -0.089,-0.13585 l 35.3554,35.35534 c 0.039,0.0387 0.069,0.0835 0.089,0.13585 z" id="path80866"/>
          <path inkscape:connector-curvature="0" style="fill:#f18d71;fill-opacity:1" d="m -3389.8621,662.05556 c -0.088,-0.0876 -0.2163,-0.14397 -0.3469,-0.18642 l 35.3553,35.35534 c 0.1307,0.0425 0.2594,0.0988 0.347,0.18642 z" id="path80868"/>
          <path inkscape:connector-curvature="0" style="fill:#f18d71;fill-opacity:1" d="m -3390.3184,661.78516 c -0.01,0 -0.01,8e-5 -0.01,3e-5 l 35.3553,35.35533 c 1e-4,6e-5 8e-4,-2e-5 0.01,-2e-5 z" id="path80870"/>
          <path inkscape:connector-curvature="0" style="fill:#f18d71;fill-opacity:1" d="m -3390.3281,661.78519 c 0,-10e-6 0,-2e-5 0,-3e-5 l 35.3553,35.35534 c 0,10e-6 0,2e-5 0,2e-5 z" id="path80872"/>
          <path inkscape:connector-curvature="0" style="fill:#f18d71;fill-opacity:1" d="m -3390.3281,661.78516 c -0.018,-6e-4 -0.035,-8e-4 -0.053,0 l 35.3553,35.35534 c 0.018,-8e-4 0.035,-6e-4 0.053,0 z" id="path80874"/>
          <path inkscape:connector-curvature="0" style="fill:#f18d71;fill-opacity:1" d="m -3390.3809,661.78516 0,-0.002 35.3553,35.35534 0,0.002 z" id="path80876"/>
          <path inkscape:connector-curvature="0" style="fill:#f18d71;fill-opacity:1" d="m -3390.3809,661.7832 c -0.1615,0.01 -0.3148,0.074 -0.4277,0.18946 l 35.3553,35.35534 c 0.1129,-0.1155 0.2662,-0.17946 0.4277,-0.18946 z" id="path80878"/>
          <path inkscape:connector-curvature="0" style="fill:#f18d71;fill-opacity:1" d="m -3390.8086,661.97266 -12.2852,12.28515 35.3553,35.35534 12.2852,-12.28515 z" id="path80880"/>
          <path inkscape:connector-curvature="0" style="fill:#f18d71;fill-opacity:1" d="m -3403.0938,674.25781 -12.2832,-12.28515 35.3553,35.35534 12.2832,12.28515 z" id="path80882"/>
          <path inkscape:connector-curvature="0" style="fill:#f18d71;fill-opacity:1" d="m -3415.377,661.97266 c 0,-0.002 0,-0.003 0,-0.005 l 35.3553,35.35534 c 0,0.002 0,0.003 0,0.005 z" id="path80884"/>
          <path inkscape:connector-curvature="0" style="fill:#f18d71;fill-opacity:1" d="m -3415.3818,661.96778 c -0.1124,-0.11242 -0.2637,-0.17472 -0.4229,-0.18458 l 35.3553,35.35534 c 0.1593,0.01 0.3105,0.0722 0.4229,0.18458 z" id="path80886"/>
          <path inkscape:connector-curvature="0" style="fill:#f18d71;fill-opacity:1" d="m -3414.2891,681.12305 5.2168,5.21875 35.3553,35.35534 -5.2168,-5.21875 z" id="path80888"/>
          <path inkscape:connector-curvature="0" style="fill:#f18d71;fill-opacity:1" d="m -3408.8594,686.25391 0,-1.09375 35.3553,35.35534 0,1.09375 z" id="path80890"/>
          <path inkscape:connector-curvature="0" style="fill:#f18d71;fill-opacity:1" d="m -3408.8594,685.16016 c 0,-1.3375 -0.4102,-2.39064 -1.1347,-3.11524 l 35.3553,35.35534 c 0.7245,0.7246 1.1347,1.77774 1.1347,3.11524 z" id="path80892"/>
          <path inkscape:connector-curvature="0" style="fill:#f18d71;fill-opacity:1" d="m -3409.9941,682.04492 c -0.7245,-0.7243 -1.7762,-1.13476 -3.1133,-1.13476 l 35.3553,35.35534 c 1.3371,0 2.3888,0.41046 3.1133,1.13476 z" id="path80894"/>
          <path inkscape:connector-curvature="0" style="fill:#f18d71;fill-opacity:1" d="m -3413.1074,680.91016 -1.0938,0 35.3553,35.35534 1.0938,0 z" id="path80896"/>
          <path inkscape:connector-curvature="0" style="fill:#f18d71;fill-opacity:1" d="m -3393.0781,680.91016 c -1.3371,0 -2.3888,0.41046 -3.1133,1.13476 l 35.3553,35.35534 c 0.7245,-0.7243 1.7762,-1.13476 3.1133,-1.13476 z" id="path80898"/>
          <path inkscape:connector-curvature="0" style="fill:#f18d71;fill-opacity:1" d="m -3396.1914,682.04492 c -0.7245,0.7246 -1.1348,1.77774 -1.1348,3.11524 l 35.3553,35.35534 c 0,-1.3375 0.4103,-2.39064 1.1348,-3.11524 z" id="path80900"/>
          <path inkscape:connector-curvature="0" style="fill:#f18d71;fill-opacity:1" d="m -3397.3262,685.16016 0,1.09375 35.3553,35.35534 0,-1.09375 z" id="path80902"/>
          <path inkscape:connector-curvature="0" style="fill:#f18d71;fill-opacity:1" d="m -3397.1133,686.3418 5.2168,-5.21875 35.3553,35.35534 -5.2168,5.21875 z" id="path80904"/>
          <path inkscape:connector-curvature="0" style="fill:#f18d71;fill-opacity:1" d="m -3391.9844,680.91016 -1.0937,0 35.3553,35.35534 1.0937,0 z" id="path80906"/>
          <path inkscape:connector-curvature="0" style="fill:#f18d71;fill-opacity:1" d="m -3412.5703,683.72656 c 0,0 -2.5625,2.56255 -3.8438,3.84375 l 35.3553,35.35534 c 1.2813,-1.2812 3.8438,-3.84375 3.8438,-3.84375 z" id="path80908"/>
          <path inkscape:connector-curvature="0" style="fill:#f18d71;fill-opacity:1" d="m -3416.4141,687.57031 c -0.048,0.049 -0.048,0.12708 0,0.17578 l 35.3553,35.35534 c -0.048,-0.0487 -0.048,-0.12678 0,-0.17578 z" id="path80910"/>
          <path inkscape:connector-curvature="0" style="fill:#f18d71;fill-opacity:1" d="m -3416.4141,687.74609 0.7188,0.72071 35.3553,35.35534 -0.7188,-0.72071 z" id="path80912"/>
          <path inkscape:connector-curvature="0" style="fill:#f18d71;fill-opacity:1" d="m -3415.6953,688.4668 c 0.049,0.048 0.1271,0.048 0.1758,0 l 35.3553,35.35534 c -0.049,0.048 -0.1268,0.048 -0.1758,0 z" id="path80914"/>
          <path inkscape:connector-curvature="0" style="fill:#f18d71;fill-opacity:1" d="m -3415.5195,688.4668 3.8437,-3.84375 35.3553,35.35534 -3.8437,3.84375 z" id="path80916"/>
          <path inkscape:connector-curvature="0" style="fill:#f18d71;fill-opacity:1" d="m -3411.6758,684.62305 -0.8945,-0.89649 35.3553,35.35534 0.8945,0.89649 z" id="path80918"/>
          <path inkscape:connector-curvature="0" style="fill:#f18d71;fill-opacity:1" d="m -3393.6152,683.72656 -0.8946,0.89649 35.3553,35.35534 0.8946,-0.89649 z" id="path80920"/>
          <path inkscape:connector-curvature="0" style="fill:#f18d71;fill-opacity:1" d="m -3394.5098,684.62305 3.8438,3.84375 35.3553,35.35534 -3.8438,-3.84375 z" id="path80922"/>
          <path inkscape:connector-curvature="0" style="fill:#f18d71;fill-opacity:1" d="m -3390.666,688.4668 c 0.049,0.048 0.1268,0.048 0.1758,0 l 35.3553,35.35534 c -0.049,0.048 -0.1271,0.048 -0.1758,0 z" id="path80924"/>
          <path inkscape:connector-curvature="0" style="fill:#f18d71;fill-opacity:1" d="m -3390.4902,688.4668 0.7187,-0.72071 35.3553,35.35534 -0.7187,0.72071 z" id="path80926"/>
          <path inkscape:connector-curvature="0" style="fill:#f18d71;fill-opacity:1" d="m -3389.7715,687.74609 c 0.048,-0.0487 0.048,-0.12678 0,-0.17578 l 35.3553,35.35534 c 0.048,0.049 0.048,0.12708 0,0.17578 z" id="path80928"/>
          <path inkscape:connector-curvature="0" style="fill:#f18d71;fill-opacity:1" d="m -3389.7715,687.57031 c -0.3203,-0.3203 -0.7207,-0.72068 -1.1411,-1.14109 l 35.3553,35.35534 c 0.4204,0.4204 0.8208,0.82079 1.1411,1.14109 z" id="path80930"/>
          <path inkscape:connector-curvature="0" style="fill:#f18d71;fill-opacity:1" d="m -3390.9126,686.42922 c -1.2613,-1.26123 -2.7026,-2.70266 -2.7026,-2.70266 l 35.3553,35.35534 c 0,0 1.4414,1.44143 2.7026,2.70266 z" id="path80932"/>
        </g>
        <path inkscape:connector-curvature="0" style="color:#000000;font-style:normal;font-variant:normal;font-weight:normal;font-stretch:normal;font-size:medium;line-height:normal;font-family:sans-serif;text-indent:0;text-align:start;text-decoration:none;text-decoration-line:none;text-decoration-style:solid;text-decoration-color:#000000;letter-spacing:normal;word-spacing:normal;text-transform:none;direction:ltr;block-progression:tb;writing-mode:lr-tb;baseline-shift:baseline;text-anchor:start;white-space:normal;clip-rule:nonzero;display:inline;overflow:visible;visibility:visible;opacity:1;isolation:auto;mix-blend-mode:normal;color-interpolation:sRGB;color-interpolation-filters:linearRGB;solid-color:#000000;solid-opacity:1;fill:#f18d71;fill-opacity:1;fill-rule:evenodd;stroke:none;stroke-width:0.25;stroke-linecap:round;stroke-linejoin:round;stroke-miterlimit:4;stroke-dasharray:none;stroke-dashoffset:0;stroke-opacity:1;color-rendering:auto;image-rendering:auto;shape-rendering:auto;text-rendering:auto;enable-background:accumulate" d="m -3415.8047,661.7832 0,0.002 c -0.018,-8e-4 -0.035,-6e-4 -0.053,0 0,10e-5 0,0 -0.012,0 a 0.1250125,0.1250125 0 0 0 -0.1094,0.084 c -0.1883,0.0612 -0.3725,0.15127 -0.4355,0.32227 -0.079,0.215 -0.04,0.47856 0.1504,0.66406 l 12.2851,12.28711 -6.041,6.04101 a 0.1250125,0.1250125 0 0 0 -0.016,0.0176 c 0.1689,0.1236 0.3313,0.25515 0.4785,0.40235 0.1472,0.1472 0.2787,0.30941 0.4024,0.47851 a 0.1250125,0.1250125 0 0 0 0.016,-0.0117 l 6.0429,-6.04492 6.045,6.04492 a 0.1250125,0.1250125 0 0 0 0.018,0.0117 c 0.1237,-0.1691 0.2551,-0.33131 0.4023,-0.47851 0.1472,-0.1472 0.3096,-0.27875 0.4785,-0.40235 a 0.1250125,0.1250125 0 0 0 -0.018,-0.0176 l -6.041,-6.04101 12.2852,-12.28711 c 0.1904,-0.1855 0.2294,-0.44906 0.1504,-0.66406 -0.063,-0.171 -0.2473,-0.26107 -0.4356,-0.32227 a 0.1250125,0.1250125 0 0 0 -0.1094,-0.084 c -0.01,0 -0.01,10e-5 -0.01,0 -0.018,-6e-4 -0.035,-8e-4 -0.053,0 l 0,-0.002 c -0.1615,0.01 -0.3148,0.074 -0.4277,0.18946 l -12.2852,12.28515 -12.2832,-12.28515 c -0.1129,-0.1155 -0.2662,-0.17946 -0.4277,-0.18946 z m 1.5859,19.12696 a 0.1250125,0.1250125 0 0 0 -0.07,0.21289 l 5.2168,5.21875 a 0.1250125,0.1250125 0 0 0 0.2129,-0.0879 l 0,-1.09375 c 0,-1.3375 -0.4102,-2.39064 -1.1347,-3.11524 -0.7245,-0.7243 -1.7762,-1.13476 -3.1133,-1.13476 l -1.0938,0 a 0.1250125,0.1250125 0 0 0 -0.018,0 z m 21.1407,0 c -1.3371,0 -2.3888,0.41046 -3.1133,1.13476 -0.7245,0.7246 -1.1348,1.77774 -1.1348,3.11524 l 0,1.09375 a 0.1250125,0.1250125 0 0 0 0.2129,0.0879 l 5.2168,-5.21875 a 0.1250125,0.1250125 0 0 0 -0.07,-0.21289 0.1250125,0.1250125 0 0 0 -0.018,0 l -1.0937,0 z m -19.4922,2.8164 c 0,0 -2.5625,2.56255 -3.8438,3.84375 -0.048,0.049 -0.048,0.12708 0,0.17578 l 0.7188,0.72071 c 0.049,0.048 0.1271,0.048 0.1758,0 l 3.8437,-3.84375 -0.8945,-0.89649 z m 18.9551,0 -0.8946,0.89649 3.8438,3.84375 c 0.049,0.048 0.1268,0.048 0.1758,0 l 0.7187,-0.72071 c 0.048,-0.0487 0.048,-0.12678 0,-0.17578 -1.2813,-1.2812 -3.8437,-3.84375 -3.8437,-3.84375 z" id="path76800"/>
      </g>
      <g transform="translate(-5331.5916,1191.8924)" id="g23732" style="fill:#ffffff">
        <g id="g23734" style="fill:#ffffff">
          <path inkscape:connector-curvature="0" id="path23736" d="m 1941.2109,490.25272 c -0.1615,0.005 -0.3148,0.0739 -0.4277,0.18946 l -19.209,19.21094 a 0.1250125,0.1250125 0 0 0 -0.016,0.0176 c 0.1689,0.1236 0.3313,0.2552 0.4785,0.40235 0.1472,0.14724 0.2787,0.30947 0.4024,0.47851 a 0.1250125,0.1250125 0 0 0 0.016,-0.0117 l 19.2129,-19.21484 c 0.1904,-0.18552 0.2294,-0.44902 0.1504,-0.66406 -0.063,-0.17102 -0.2473,-0.26107 -0.4356,-0.32227 a 0.1250125,0.1250125 0 0 1 0,-0.002 0.1250125,0.1250125 0 0 0 -0.1094,-0.084 c 0,0 0,0 0,0 -0.01,0 -0.01,6e-5 -0.01,0 -0.018,-6.5e-4 -0.035,-8.2e-4 -0.053,0 z" style="color:#000000;font-style:normal;font-variant:normal;font-weight:normal;font-stretch:normal;font-size:medium;line-height:normal;font-family:sans-serif;text-indent:0;text-align:start;text-decoration:none;text-decoration-line:none;text-decoration-style:solid;text-decoration-color:#000000;letter-spacing:normal;word-spacing:normal;text-transform:none;direction:ltr;block-progression:tb;writing-mode:lr-tb;baseline-shift:baseline;text-anchor:start;white-space:normal;clip-rule:nonzero;display:inline;overflow:visible;visibility:visible;opacity:1;isolation:auto;mix-blend-mode:normal;color-interpolation:sRGB;color-interpolation-filters:linearRGB;solid-color:#000000;solid-opacity:1;fill:#ffffff;fill-opacity:1;fill-rule:evenodd;stroke:none;stroke-width:0.25;stroke-linecap:round;stroke-linejoin:round;stroke-miterlimit:4;stroke-dasharray:none;stroke-dashoffset:0;stroke-opacity:1;color-rendering:auto;image-rendering:auto;shape-rendering:auto;text-rendering:auto;enable-background:accumulate"/>
          <path inkscape:connector-curvature="0" id="path23738" d="m 1917.373,509.37968 a 0.1250125,0.1250125 0 0 0 -0.07,0.21289 l 5.2168,5.21875 a 0.1250125,0.1250125 0 0 0 0.2129,-0.0879 l 0,-1.09375 c 0,-1.33745 -0.4102,-2.39069 -1.1347,-3.11524 -0.7245,-0.72438 -1.7762,-1.13476 -3.1133,-1.13476 l -1.0938,0 a 0.1250125,0.1250125 0 0 0 -0.018,0 z" style="color:#000000;font-style:normal;font-variant:normal;font-weight:normal;font-stretch:normal;font-size:medium;line-height:normal;font-family:sans-serif;text-indent:0;text-align:start;text-decoration:none;text-decoration-line:none;text-decoration-style:solid;text-decoration-color:#000000;letter-spacing:normal;word-spacing:normal;text-transform:none;direction:ltr;block-progression:tb;writing-mode:lr-tb;baseline-shift:baseline;text-anchor:start;white-space:normal;clip-rule:nonzero;display:inline;overflow:visible;visibility:visible;opacity:1;isolation:auto;mix-blend-mode:normal;color-interpolation:sRGB;color-interpolation-filters:linearRGB;solid-color:#000000;solid-opacity:1;fill:#ffffff;fill-opacity:1;fill-rule:evenodd;stroke:none;stroke-width:0.25;stroke-linecap:round;stroke-linejoin:round;stroke-miterlimit:4;stroke-dasharray:none;stroke-dashoffset:0;stroke-opacity:1;color-rendering:auto;image-rendering:auto;shape-rendering:auto;text-rendering:auto;enable-background:accumulate"/>
          <path sodipodi:nodetypes="ccccccc" inkscape:connector-curvature="0" id="path23740" d="m 1919.0215,512.19608 c 0,0 -2.5625,2.56249 -3.8438,3.84375 -0.048,0.0487 -0.048,0.12709 0,0.17579 l 0.7188,0.7207 c 0.049,0.0482 0.1271,0.0482 0.1758,0 l 3.8437,-3.84375 z" style="color:#000000;font-style:normal;font-variant:normal;font-weight:normal;font-stretch:normal;font-size:medium;line-height:normal;font-family:sans-serif;text-indent:0;text-align:start;text-decoration:none;text-decoration-line:none;text-decoration-style:solid;text-decoration-color:#000000;letter-spacing:normal;word-spacing:normal;text-transform:none;direction:ltr;block-progression:tb;writing-mode:lr-tb;baseline-shift:baseline;text-anchor:start;white-space:normal;clip-rule:nonzero;display:inline;overflow:visible;visibility:visible;opacity:1;isolation:auto;mix-blend-mode:normal;color-interpolation:sRGB;color-interpolation-filters:linearRGB;solid-color:#000000;solid-opacity:1;fill:#ffffff;fill-opacity:1;fill-rule:evenodd;stroke:none;stroke-width:0.25;stroke-linecap:round;stroke-linejoin:round;stroke-miterlimit:4;stroke-dasharray:none;stroke-dashoffset:0;stroke-opacity:1;color-rendering:auto;image-rendering:auto;shape-rendering:auto;text-rendering:auto;enable-background:accumulate"/>
        </g>
        <g id="g23742" transform="matrix(-1,0,0,1,3856.9986,0)" style="fill:#ffffff">
          <path style="color:#000000;font-style:normal;font-variant:normal;font-weight:normal;font-stretch:normal;font-size:medium;line-height:normal;font-family:sans-serif;text-indent:0;text-align:start;text-decoration:none;text-decoration-line:none;text-decoration-style:solid;text-decoration-color:#000000;letter-spacing:normal;word-spacing:normal;text-transform:none;direction:ltr;block-progression:tb;writing-mode:lr-tb;baseline-shift:baseline;text-anchor:start;white-space:normal;clip-rule:nonzero;display:inline;overflow:visible;visibility:visible;opacity:1;isolation:auto;mix-blend-mode:normal;color-interpolation:sRGB;color-interpolation-filters:linearRGB;solid-color:#000000;solid-opacity:1;fill:#ffffff;fill-opacity:1;fill-rule:evenodd;stroke:none;stroke-width:0.25;stroke-linecap:round;stroke-linejoin:round;stroke-miterlimit:4;stroke-dasharray:none;stroke-dashoffset:0;stroke-opacity:1;color-rendering:auto;image-rendering:auto;shape-rendering:auto;text-rendering:auto;enable-background:accumulate" d="m 1941.2109,490.25272 c -0.1615,0.005 -0.3148,0.0739 -0.4277,0.18946 l -19.209,19.21094 a 0.1250125,0.1250125 0 0 0 -0.016,0.0176 c 0.1689,0.1236 0.3313,0.2552 0.4785,0.40235 0.1472,0.14724 0.2787,0.30947 0.4024,0.47851 a 0.1250125,0.1250125 0 0 0 0.016,-0.0117 l 19.2129,-19.21484 c 0.1904,-0.18552 0.2294,-0.44902 0.1504,-0.66406 -0.063,-0.17102 -0.2473,-0.26107 -0.4356,-0.32227 a 0.1250125,0.1250125 0 0 1 0,-0.002 0.1250125,0.1250125 0 0 0 -0.1094,-0.084 c 0,0 0,0 0,0 -0.01,0 -0.01,6e-5 -0.01,0 -0.018,-6.5e-4 -0.035,-8.2e-4 -0.053,0 z" id="path23744" inkscape:connector-curvature="0"/>
          <path style="color:#000000;font-style:normal;font-variant:normal;font-weight:normal;font-stretch:normal;font-size:medium;line-height:normal;font-family:sans-serif;text-indent:0;text-align:start;text-decoration:none;text-decoration-line:none;text-decoration-style:solid;text-decoration-color:#000000;letter-spacing:normal;word-spacing:normal;text-transform:none;direction:ltr;block-progression:tb;writing-mode:lr-tb;baseline-shift:baseline;text-anchor:start;white-space:normal;clip-rule:nonzero;display:inline;overflow:visible;visibility:visible;opacity:1;isolation:auto;mix-blend-mode:normal;color-interpolation:sRGB;color-interpolation-filters:linearRGB;solid-color:#000000;solid-opacity:1;fill:#ffffff;fill-opacity:1;fill-rule:evenodd;stroke:none;stroke-width:0.25;stroke-linecap:round;stroke-linejoin:round;stroke-miterlimit:4;stroke-dasharray:none;stroke-dashoffset:0;stroke-opacity:1;color-rendering:auto;image-rendering:auto;shape-rendering:auto;text-rendering:auto;enable-background:accumulate" d="m 1917.373,509.37968 a 0.1250125,0.1250125 0 0 0 -0.07,0.21289 l 5.2168,5.21875 a 0.1250125,0.1250125 0 0 0 0.2129,-0.0879 l 0,-1.09375 c 0,-1.33745 -0.4102,-2.39069 -1.1347,-3.11524 -0.7245,-0.72438 -1.7762,-1.13476 -3.1133,-1.13476 l -1.0938,0 a 0.1250125,0.1250125 0 0 0 -0.018,0 z" id="path23746" inkscape:connector-curvature="0"/>
          <path style="color:#000000;font-style:normal;font-variant:normal;font-weight:normal;font-stretch:normal;font-size:medium;line-height:normal;font-family:sans-serif;text-indent:0;text-align:start;text-decoration:none;text-decoration-line:none;text-decoration-style:solid;text-decoration-color:#000000;letter-spacing:normal;word-spacing:normal;text-transform:none;direction:ltr;block-progression:tb;writing-mode:lr-tb;baseline-shift:baseline;text-anchor:start;white-space:normal;clip-rule:nonzero;display:inline;overflow:visible;visibility:visible;opacity:1;isolation:auto;mix-blend-mode:normal;color-interpolation:sRGB;color-interpolation-filters:linearRGB;solid-color:#000000;solid-opacity:1;fill:#ffffff;fill-opacity:1;fill-rule:evenodd;stroke:none;stroke-width:0.25;stroke-linecap:round;stroke-linejoin:round;stroke-miterlimit:4;stroke-dasharray:none;stroke-dashoffset:0;stroke-opacity:1;color-rendering:auto;image-rendering:auto;shape-rendering:auto;text-rendering:auto;enable-background:accumulate" d="m 1919.0215,512.19608 c 0,0 -2.5625,2.56249 -3.8438,3.84375 -0.048,0.0487 -0.048,0.12709 0,0.17579 l 0.7188,0.7207 c 0.049,0.0482 0.1271,0.0482 0.1758,0 l 3.8437,-3.84375 z" id="path23748" inkscape:connector-curvature="0" sodipodi:nodetypes="ccccccc"/>
        </g>
      </g>
    </g>
  </g>

	<metadata>
		<rdf:RDF xmlns:rdf="http://www.w3.org/1999/02/22-rdf-syntax-ns#" xmlns:rdfs="http://www.w3.org/2000/01/rdf-schema#" xmlns:dc="http://purl.org/dc/elements/1.1/">
			<rdf:Description about="https://iconscout.com/legal#licenses" dc:title="fencing-cross-swords-combat-olympics-games-sports" dc:description="fencing-cross-swords-combat-olympics-games-sports" dc:publisher="Iconscout" dc:date="2017-05-02" dc:format="image/svg+xml" dc:language="en">
				<dc:creator>
					<rdf:Bag>
						<rdf:li>Vignesh Oviyan</rdf:li>
					</rdf:Bag>
				</dc:creator>
			</rdf:Description>
		</rdf:RDF>
    </metadata></svg>
