<?xml version="1.0" encoding="iso-8859-1"?>
<!-- Generator: Adobe Illustrator 16.0.0, SVG Export Plug-In . SVG Version: 6.00 Build 0)  -->
<!DOCTYPE svg PUBLIC "-//W3C//DTD SVG 1.1//EN" "http://www.w3.org/Graphics/SVG/1.1/DTD/svg11.dtd">
<svg version="1.1" id="Capa_1" xmlns="http://www.w3.org/2000/svg" xmlns:xlink="http://www.w3.org/1999/xlink" x="0px" y="0px"
	 width="32.004px" height="32.004px" viewBox="0 0 32.004 32.004" style="enable-background:new 0 0 32.004 32.004;"
	 xml:space="preserve">
<g>
	<path d="M18.07,27.52c0.865,0.941,0.343,2.897,0.375,4.48h-0.514C17.874,30.546,18.124,28.838,18.07,27.52z M5.968,20.663
		c-0.802-2.517-0.525-6.514,1.225-8.002C6.697,11.412,6.851,9.367,7.5,8.393c1.954,0.088,3.139,0.939,4.366,1.754
		c1.521-0.435,3.123-0.648,5.208-0.535c0.878,0.05,1.791,0.443,2.451,0.381c0.646-0.061,1.36-0.788,1.99-1.064
		c0.82-0.363,1.514-0.501,2.451-0.535c0.45,1.022,0.742,2.721,0.309,3.963c1.778,1.521,2.392,5.213,1.531,8.23
		c2.022,0.154,4.346,0.013,6.194,0.339V0H0.002v20.939C1.763,20.62,3.891,20.666,5.968,20.663z M25.578,21.35
		c2.242,0.176,4.458,0.379,6.424,0.832v-1.091c-1.617-0.229-3.523-0.479-5.352-0.354C26.205,20.77,25.545,20.723,25.578,21.35z
		 M14.012,27.52c-0.945,0.715-0.313,2.834-0.382,4.48h0.456C14.115,30.578,13.824,28.934,14.012,27.52z M3.824,20.736
		c-1.201,0.055-2.62,0.177-3.822,0.332v1.139c1.883-0.493,4.045-0.709,6.35-0.783C6.185,20.425,4.728,20.699,3.824,20.736z
		 M25.578,21.502c-1.139,2.243-3.428,3.348-6.588,3.58c0.34,0.738,0.99,1.021,1.15,2.209c0.188,1.429-0.156,3.379,0.008,4.709
		h11.854v-9.719C30.051,21.943,27.844,21.562,25.578,21.502z M11.866,29.35c-2.205,0.439-3.914-0.062-4.75-1.447
		c-0.375-0.621-0.468-1.354-0.919-1.904c-0.451-0.553-1.169-0.625-1.378-1.371c2.729-0.656,2.833,2.811,5.285,2.895
		c0.752,0.028,1.142-0.217,1.838-0.379c0.194-0.875,0.612-1.525,1.226-1.98c-3.051-0.418-5.569-1.367-6.741-3.656
		c-2.296,0.112-4.424,0.396-6.425,0.805v9.693h11.895C11.938,31.223,11.758,30.294,11.866,29.35z M16.268,32
		c-0.091-1.52,0.084-3.333-0.188-4.709c-0.543,0.038-0.305,0.812-0.307,1.146c-0.006,1.133,0.081,2.428,0.005,3.562H16.268
		L16.268,32z"/>
</g>
<g>
</g>
<g>
</g>
<g>
</g>
<g>
</g>
<g>
</g>
<g>
</g>
<g>
</g>
<g>
</g>
<g>
</g>
<g>
</g>
<g>
</g>
<g>
</g>
<g>
</g>
<g>
</g>
<g>
</g>
</svg>
