<?xml version="1.0" standalone="no"?>
<!DOCTYPE svg PUBLIC "-//W3C//DTD SVG 20010904//EN"
 "http://www.w3.org/TR/2001/REC-SVG-20010904/DTD/svg10.dtd">
<svg version="1.0" xmlns="http://www.w3.org/2000/svg"
 width="96.000000pt" height="96.000000pt" viewBox="0 0 96.000000 96.000000"
 preserveAspectRatio="xMidYMid meet">
<metadata>
Created by potrace 1.16, written by Peter Selinger 2001-2019
</metadata>
<g transform="translate(0.000000,96.000000) scale(0.100000,-0.100000)"
fill="#000000" stroke="none">
<path d="M220 440 c0 -287 1 -301 20 -320 19 -19 33 -20 240 -20 207 0 221 1
240 20 19 19 20 33 20 320 l0 300 -260 0 -260 0 0 -300z m217 88 l43 -42 45
44 45 44 32 -32 32 -32 -44 -45 -44 -45 44 -45 44 -45 -32 -32 -32 -32 -45 44
-45 44 -45 -44 -45 -44 -32 32 -32 32 44 45 44 45 -44 45 -44 45 29 30 c16 16
31 30 34 30 3 0 25 -19 48 -42z"/>
</g>
</svg>
